<svg viewBox="0 0 800 450" xmlns="http://www.w3.org/2000/svg">
  <defs>
    <radialGradient id="bgGradient" cx="50%" cy="50%" r="50%">
      <stop offset="0%" style="stop-color:#1e293b;stop-opacity:1" />
      <stop offset="100%" style="stop-color:#0f172a;stop-opacity:1" />
    </radialGradient>
    <linearGradient id="pandaGradient" x1="0%" y1="0%" x2="100%" y2="100%">
      <stop offset="0%" style="stop-color:#f8fafc;stop-opacity:1" />
      <stop offset="100%" style="stop-color:#e2e8f0;stop-opacity:1" />
    </linearGradient>
  </defs>
  
  <rect width="800" height="450" fill="url(#bgGradient)"/>
  
  <!-- Stars background -->
  <circle cx="100" cy="100" r="1" fill="#8b5cf6" opacity="0.6"/>
  <circle cx="700" cy="80" r="1.5" fill="#a855f7" opacity="0.8"/>
  <circle cx="650" cy="350" r="1" fill="#8b5cf6" opacity="0.5"/>
  <circle cx="150" cy="350" r="1" fill="#a855f7" opacity="0.7"/>
  
  <!-- Panda character -->
  <g transform="translate(400,225)">
    <!-- Ears -->
    <circle cx="-50" cy="-60" r="28" fill="#000"/>
    <circle cx="50" cy="-60" r="28" fill="#000"/>
    
    <!-- Head -->
    <circle cx="0" cy="-20" r="85" fill="url(#pandaGradient)" stroke="#cbd5e1" stroke-width="2"/>
    
    <!-- Eye patches -->
    <ellipse cx="-28" cy="-35" rx="18" ry="25" fill="#000"/>
    <ellipse cx="28" cy="-35" rx="18" ry="25" fill="#000"/>
    
    <!-- Eyes -->
    <circle cx="-22" cy="-30" r="4" fill="#fff"/>
    <circle cx="22" cy="-30" r="4" fill="#fff"/>
    <circle cx="-20" cy="-28" r="2" fill="#000"/>
    <circle cx="20" cy="-28" r="2" fill="#000"/>
    
    <!-- Nose -->
    <ellipse cx="0" cy="-15" rx="4" ry="6" fill="#000"/>
    
    <!-- Mouth -->
    <path d="M -12,-5 Q 0,5 12,-5" stroke="#000" stroke-width="3" fill="none"/>
    
    <!-- Hood/cloak shadow -->
    <path d="M -85,-20 Q -85,-80 -50,-90 Q 0,-100 50,-90 Q 85,-80 85,-20" fill="#1e293b" opacity="0.7"/>
  </g>
  
  <!-- Mystical particles -->
  <circle cx="200" cy="150" r="2" fill="#8b5cf6" opacity="0.8">
    <animate attributeName="opacity" values="0.3;1;0.3" dur="2s" repeatCount="indefinite"/>
  </circle>
  <circle cx="600" cy="300" r="1.5" fill="#a855f7" opacity="0.9">
    <animate attributeName="opacity" values="0.5;1;0.5" dur="3s" repeatCount="indefinite"/>
  </circle>
</svg>